# xmcd CD database file
#
# Track frame offsets:
#	225
#	15604
#	34828
#	55081
#	70552
#	89130
#	105717
#	126446
#
# Disc length: 1919 seconds
#
# Revision: 0
# Processed by: cddbd v1.4PL0 Copyright (c) Steve Scherf et al.
# Submitted via: CDex 1.50
#
DISCID=6a077c08
DTITLE=Bluestrain - 92
DYEAR=1992
DGENRE=Blues
TTITLE0=I'm good
TTITLE1=My love strikes like lightning
TTITLE2=We're gonna make it
TTITLE3=Sound the bell
TTITLE4=Sleeping with the devil
TTITLE5=In a fever of excitememt
TTITLE6=I don't care no more
TTITLE7=I'm ready
EXTD=YEAR: 1992
EXTT0=
EXTT1=
EXTT2=
EXTT3=
EXTT4=
EXTT5=
EXTT6=
EXTT7=
PLAYORDER=
